<?xml version="1.0" encoding="UTF-8"?>
<svg id="Layer_1" data-name="Layer 1" xmlns="http://www.w3.org/2000/svg" version="1.1" viewBox="0 0 414.54 439.2">
  <path d="M107.64,411.24c-6.94-2.9-12.03-7.35-12.67-15.4-.53-6.71-.97-13.43-1.43-20.15-3.34-49.39-6.66-98.77-10.01-148.16-1.57-23.13-3.21-46.26-4.85-69.71h256.8c-.68,9.85-1.33,19.64-2.04,29.43-1.63,22.26-3.3,44.51-4.94,66.77-1.94,26.36-3.87,52.72-5.78,79.08-1.38,19.03-2.99,38.04-3.96,57.09-.5,9.91-3.21,17.74-13.51,21.05H107.64ZM234.86,278.76c0,20.82,0,41.64,0,62.45,0,4.49-.1,8.98.05,13.46.19,5.67,4.34,9.94,9.81,10.36,5.61.43,10.24-2.99,11.4-8.57.33-1.57.34-3.22.35-4.83.02-48.74.01-97.48.01-146.22,0-1,.06-2-.05-2.99-.72-6.95-6.93-11.37-13.61-9.72-4.95,1.22-7.96,5.54-7.96,11.64-.02,24.81,0,49.61-.01,74.42ZM157.81,278.71c0,14.46,0,28.92,0,43.38,0,10.6-.08,21.19.03,31.79.08,7.78,6.74,12.88,13.9,10.83,4.93-1.41,7.71-5.79,7.71-12.27,0-49.24,0-98.48,0-147.72,0-.87.04-1.75-.07-2.61-.72-6.01-5.69-10.1-11.67-9.66-5.99.45-9.89,5.04-9.9,11.84-.03,24.81-.01,49.61-.01,74.42Z" fill="#fb0005" stroke-width="0"/>
  <path d="M360.56,135.69H54.27c0-9.61-.8-19.13.2-28.45,1.28-11.93,11.34-20.16,23.37-20.73,1.24-.06,2.49-.04,3.74-.04,83.81,0,167.62,0,251.43,0,17.47,0,27.54,10.11,27.55,27.66,0,7.09,0,14.18,0,21.57Z" fill="#fb0005" stroke-width="0"/>
  <path d="M270.91,64.69h-127.32c0-9.34-.25-18.54.1-27.71.2-5.15,5.02-8.87,10.68-8.96,6.6-.1,13.21-.03,19.82-.03,27.92,0,55.83,0,83.75,0,9.1,0,12.96,3.84,12.97,12.89.01,7.83,0,15.66,0,23.81Z" fill="#fb0005" stroke-width="0"/>
</svg>